<?xml version="1.0" encoding="UTF-8"?>
<!DOCTYPE svg PUBLIC "-//W3C//DTD SVG 1.1//EN" "http://www.w3.org/Graphics/SVG/1.1/DTD/svg11.dtd"><svg version="1.1" viewBox="0 0 15000 15000" preserveAspectRatio="xMidYMid" fill-rule="evenodd" xmlns="http://www.w3.org/2000/svg" xmlns:xlink="http://www.w3.org/1999/xlink"><g visibility="visible" id="Standard"><desc>Master slide</desc></g><g visibility="visible" id="page1"><desc>Slide</desc><g><desc>Drawing</desc><g><g style="stroke:none;fill:rgb(230,230,230)"><path d="M 7483,13668 L 6850,13636 6236,13542 5644,13389 5076,13182 4535,12922 4026,12611 3549,12255 3110,11856 2711,11418 2355,10941 2045,10431 1784,9890 1577,9322 1424,8729 1331,8115 1299,7483 1331,6850 1424,6236 1577,5644 1784,5076 2045,4535 2355,4026 2711,3549 3110,3110 3549,2711 4026,2355 4535,2045 5076,1784 5644,1577 6236,1424 6850,1331 7483,1299 8115,1331 8729,1424 9322,1577 9890,1784 10431,2045 10941,2355 11418,2711 11856,3110 12255,3549 12611,4026 12922,4535 13182,5076 13389,5644 13542,6236 13636,6850 13668,7483 13636,8115 13542,8729 13389,9322 13182,9890 12922,10431 12611,10941 12255,11418 11856,11856 11418,12255 10941,12611 10431,12922 9890,13182 9322,13389 8729,13542 8115,13636 7483,13668 Z M 7483,11902 L 7950,11879 8405,11813 8843,11704 9264,11555 9664,11369 10041,11147 10393,10893 10718,10608 11014,10294 11277,9954 11506,9589 11699,9203 11853,8797 11966,8374 12035,7936 12059,7484 12038,7053 11974,6635 11872,6229 11732,5841 11556,5469 11348,5117 11106,4786 10836,4477 5332,11384 5577,11501 5830,11604 6089,11693 6356,11768 6629,11825 6908,11867 7193,11893 7483,11902 Z M 7483,3065 L 7015,3088 6560,3155 6123,3264 5702,3412 5302,3599 4925,3820 4573,4074 4248,4360 3953,4674 3689,5014 3460,5378 3268,5764 3113,6170 3000,6593 2931,7032 2908,7484 2928,7914 2992,8333 3094,8737 3235,9126 3410,9498 3620,9852 3861,10183 4131,10491 9635,3584 9391,3466 9137,3363 8877,3275 8610,3201 8336,3142 8057,3100 7772,3074 7483,3065 Z"/></g><g/></g></g><g><desc>Group</desc><g><desc>Drawing</desc><g><g style="stroke:none;fill:rgb(179,179,179)"><path d="M 3859,6021 L 4099,6021 4413,6841 4413,6021 4610,6021 4610,7150 4371,7150 4056,6330 4056,7150 3859,7150 3859,6021 Z"/></g><g/></g></g><g><desc>Drawing</desc><g><g style="stroke:none;fill:rgb(179,179,179)"><path d="M 5167,6463 L 5157,6463 5148,6464 5138,6465 5129,6467 5121,6470 5112,6473 5104,6476 5096,6480 5088,6485 5081,6490 5074,6496 5067,6502 5060,6509 5054,6516 5048,6524 5042,6533 5031,6551 5022,6571 5014,6593 5008,6617 5003,6642 4999,6668 4997,6697 4996,6727 4997,6757 4999,6786 5002,6813 5007,6838 5014,6862 5022,6883 5031,6904 5042,6922 5048,6931 5054,6939 5061,6946 5067,6953 5074,6959 5081,6965 5089,6970 5096,6975 5104,6979 5112,6982 5121,6985 5129,6988 5138,6990 5148,6991 5157,6992 5167,6992 5177,6992 5186,6991 5196,6990 5205,6988 5213,6985 5222,6982 5230,6979 5238,6975 5246,6970 5253,6965 5261,6959 5268,6953 5274,6946 5281,6939 5287,6931 5293,6922 5299,6913 5304,6904 5313,6884 5321,6862 5327,6838 5332,6813 5335,6786 5337,6758 5338,6727 5337,6696 5335,6668 5332,6641 5327,6616 5320,6593 5313,6571 5304,6551 5293,6533 5287,6524 5281,6516 5275,6509 5268,6502 5261,6496 5254,6490 5246,6485 5239,6480 5231,6476 5222,6473 5214,6470 5205,6467 5196,6465 5186,6464 5177,6463 5167,6463 Z M 4775,6727 L 4777,6677 4782,6630 4790,6585 4801,6544 4816,6505 4825,6486 4834,6468 4845,6451 4856,6434 4868,6418 4881,6403 4895,6388 4909,6375 4923,6362 4939,6351 4955,6340 4971,6330 4988,6321 5006,6313 5024,6306 5042,6300 5062,6295 5082,6291 5123,6285 5167,6283 5211,6285 5252,6291 5272,6295 5292,6300 5310,6306 5328,6313 5346,6321 5363,6330 5379,6340 5395,6351 5411,6362 5425,6375 5439,6388 5453,6403 5466,6418 5478,6434 5489,6451 5500,6468 5509,6486 5518,6505 5533,6544 5544,6586 5552,6630 5557,6677 5559,6727 5557,6777 5552,6824 5544,6869 5533,6911 5518,6950 5509,6969 5500,6987 5489,7004 5478,7021 5466,7037 5453,7052 5439,7067 5425,7080 5411,7093 5395,7105 5379,7115 5363,7125 5346,7134 5328,7142 5310,7149 5292,7155 5272,7160 5252,7165 5211,7170 5167,7172 5123,7170 5082,7165 5062,7160 5042,7155 5024,7149 5006,7142 4988,7134 4971,7125 4955,7115 4939,7105 4923,7093 4909,7080 4895,7067 4881,7052 4868,7037 4856,7021 4845,7004 4834,6987 4825,6969 4816,6950 4801,6911 4790,6869 4782,6824 4777,6777 4775,6727 Z"/></g><g/></g></g><g><desc>Drawing</desc><g><g style="stroke:none;fill:rgb(179,179,179)"><path d="M 6696,6218 L 6696,6021 7367,6021 7367,6218 7143,6218 7143,6953 7367,6953 7367,7150 6696,7150 6696,6953 6920,6953 6920,6218 6696,6218 Z"/></g><g/></g></g><g><desc>Drawing</desc><g><g style="stroke:none;fill:rgb(179,179,179)"><path d="M 8019,6388 L 8025,6375 8032,6363 8039,6352 8047,6341 8055,6332 8063,6323 8072,6316 8082,6309 8092,6303 8102,6298 8113,6293 8125,6290 8137,6287 8149,6285 8162,6283 8176,6283 8203,6284 8215,6286 8227,6288 8238,6290 8249,6294 8260,6297 8269,6302 8278,6307 8287,6313 8295,6319 8303,6326 8310,6333 8316,6341 8322,6350 8328,6359 8333,6369 8338,6381 8346,6407 8354,6439 8360,6476 8364,6517 8367,6564 8370,6673 8370,7150 8189,7150 8189,6607 8188,6564 8187,6545 8185,6528 8183,6513 8181,6501 8178,6490 8177,6485 8175,6481 8173,6477 8171,6474 8169,6470 8167,6467 8164,6464 8161,6462 8158,6459 8155,6457 8151,6455 8148,6454 8144,6452 8140,6451 8136,6450 8131,6450 8127,6449 8122,6449 8117,6449 8113,6450 8108,6450 8104,6451 8100,6452 8096,6454 8093,6455 8090,6457 8086,6459 8083,6462 8080,6464 8078,6467 8075,6470 8073,6474 8071,6477 8069,6481 8067,6485 8065,6490 8062,6501 8060,6514 8058,6529 8056,6545 8055,6564 8054,6607 8054,7150 7875,7150 7875,6607 7874,6564 7873,6546 7871,6529 7869,6514 7867,6501 7864,6490 7862,6485 7860,6481 7858,6477 7856,6473 7854,6470 7851,6467 7848,6464 7845,6461 7842,6459 7839,6457 7836,6455 7832,6453 7828,6452 7824,6451 7820,6450 7816,6449 7812,6449 7807,6449 7802,6449 7798,6450 7794,6450 7790,6451 7786,6452 7782,6454 7778,6455 7775,6457 7772,6459 7769,6462 7766,6464 7763,6467 7760,6470 7758,6474 7756,6477 7754,6481 7752,6485 7751,6490 7748,6501 7745,6513 7743,6528 7742,6545 7741,6564 7740,6607 7740,7150 7559,7150 7559,6303 7720,6303 7720,6391 7725,6379 7731,6368 7738,6357 7745,6347 7753,6337 7761,6328 7770,6320 7780,6312 7790,6305 7801,6299 7812,6294 7824,6290 7836,6287 7848,6285 7860,6283 7873,6283 7886,6283 7898,6285 7910,6287 7922,6291 7934,6295 7945,6300 7956,6307 7967,6314 7977,6322 7986,6330 7994,6339 8001,6348 8007,6357 8012,6367 8016,6377 8019,6388 Z"/></g><g/></g></g><g><desc>Drawing</desc><g><g style="stroke:none;fill:rgb(179,179,179)"><path d="M 8958,6752 L 8928,6753 8901,6754 8875,6757 8853,6760 8832,6765 8814,6770 8806,6773 8799,6777 8791,6780 8785,6784 8779,6788 8773,6793 8768,6797 8763,6803 8759,6808 8755,6814 8751,6821 8748,6827 8745,6834 8743,6842 8741,6849 8739,6857 8737,6875 8736,6893 8737,6907 8738,6921 8741,6933 8742,6939 8744,6945 8747,6951 8749,6956 8752,6961 8755,6966 8758,6971 8762,6976 8766,6981 8770,6985 8774,6989 8779,6993 8784,6997 8789,7000 8794,7003 8799,7006 8804,7008 8810,7011 8816,7013 8822,7014 8834,7017 8848,7018 8862,7019 8883,7018 8893,7017 8903,7015 8913,7013 8922,7010 8931,7006 8940,7003 8948,6998 8956,6993 8964,6988 8971,6982 8979,6975 8985,6968 8992,6961 8998,6953 9004,6945 9009,6936 9019,6917 9027,6896 9034,6874 9039,6849 9043,6824 9045,6796 9046,6767 9046,6752 8958,6752 Z M 9266,6667 L 9266,7150 9046,7150 9046,7056 9036,7069 9024,7082 9013,7094 9000,7105 8987,7116 8973,7125 8958,7134 8943,7142 8927,7149 8911,7155 8895,7160 8877,7165 8860,7168 8842,7170 8824,7172 8805,7172 8770,7171 8737,7167 8706,7161 8677,7153 8663,7148 8650,7142 8637,7136 8624,7129 8613,7122 8601,7114 8590,7105 8580,7096 8570,7086 8561,7076 8553,7065 8545,7054 8538,7042 8531,7030 8525,7017 8520,7004 8515,6991 8511,6977 8505,6947 8501,6916 8500,6882 8502,6846 8506,6813 8509,6797 8514,6782 8518,6768 8524,6754 8530,6741 8538,6728 8545,6716 8554,6704 8563,6693 8574,6683 8584,6673 8596,6664 8608,6655 8622,6647 8636,6640 8651,6633 8683,6621 8718,6611 8757,6603 8799,6597 8844,6594 8893,6593 9046,6593 9046,6556 9045,6543 9045,6537 9044,6531 9042,6525 9041,6519 9039,6514 9036,6509 9034,6504 9031,6499 9028,6495 9024,6490 9020,6486 9016,6482 9012,6478 9007,6475 9002,6472 8997,6469 8985,6463 8973,6458 8959,6454 8944,6451 8928,6449 8911,6447 8893,6447 8873,6447 8854,6448 8834,6450 8815,6452 8796,6455 8777,6458 8739,6467 8720,6472 8701,6478 8682,6485 8663,6493 8624,6511 8584,6531 8584,6342 8621,6328 8658,6316 8695,6305 8733,6297 8772,6291 8811,6286 8851,6284 8893,6283 8942,6284 8988,6288 9030,6295 9068,6304 9086,6310 9103,6316 9119,6323 9133,6330 9147,6338 9160,6347 9172,6357 9183,6367 9193,6378 9203,6390 9211,6403 9220,6417 9227,6432 9234,6449 9240,6466 9246,6484 9255,6524 9261,6567 9265,6615 9266,6667 Z"/></g><g/></g></g><g><desc>Drawing</desc><g><g style="stroke:none;fill:rgb(179,179,179)"><path d="M 9968,6713 L 9967,6686 9965,6659 9962,6635 9957,6611 9951,6589 9944,6568 9935,6549 9925,6531 9914,6515 9908,6508 9902,6501 9895,6495 9889,6489 9882,6484 9875,6480 9868,6476 9860,6472 9852,6470 9845,6467 9836,6465 9828,6464 9820,6463 9811,6463 9802,6463 9794,6464 9786,6465 9778,6467 9770,6470 9763,6473 9755,6476 9748,6480 9741,6485 9735,6490 9728,6495 9722,6501 9716,6508 9710,6515 9704,6523 9699,6531 9689,6549 9680,6568 9673,6588 9667,6610 9662,6634 9659,6659 9657,6685 9656,6713 9657,6741 9659,6768 9662,6793 9667,6817 9673,6839 9680,6859 9689,6878 9699,6896 9710,6912 9716,6919 9722,6926 9729,6932 9735,6937 9742,6942 9749,6947 9756,6951 9763,6954 9770,6957 9778,6960 9786,6962 9794,6963 9802,6964 9811,6964 9820,6964 9828,6963 9836,6962 9845,6960 9852,6957 9860,6954 9868,6951 9875,6947 9882,6942 9889,6937 9895,6932 9902,6926 9908,6919 9914,6912 9925,6896 9935,6878 9944,6859 9951,6838 9957,6816 9962,6792 9965,6767 9967,6741 9968,6713 Z M 10189,7086 L 10188,7135 10183,7181 10176,7223 10166,7262 10160,7279 10153,7296 10145,7313 10137,7328 10128,7342 10118,7356 10108,7368 10097,7380 10085,7391 10072,7401 10059,7411 10044,7419 10029,7427 10012,7435 9995,7442 9977,7448 9938,7457 9895,7464 9849,7469 9799,7470 9765,7469 9730,7468 9696,7465 9661,7460 9627,7454 9592,7447 9558,7438 9523,7428 9523,7225 9555,7241 9587,7255 9603,7261 9619,7267 9635,7272 9651,7276 9684,7283 9717,7289 9734,7291 9751,7292 9768,7293 9785,7293 9808,7292 9829,7290 9848,7287 9866,7282 9875,7279 9883,7276 9891,7272 9898,7268 9905,7264 9911,7259 9917,7254 9923,7249 9928,7243 9933,7237 9938,7231 9942,7224 9946,7217 9950,7209 9953,7201 9956,7192 9961,7174 9965,7155 9967,7134 9968,7111 9968,7020 9959,7035 9950,7048 9941,7061 9930,7073 9919,7083 9908,7093 9895,7102 9882,7110 9868,7117 9854,7123 9838,7128 9822,7132 9805,7135 9788,7137 9770,7139 9751,7139 9733,7139 9716,7137 9699,7135 9682,7132 9666,7128 9650,7123 9635,7117 9621,7111 9606,7103 9593,7095 9579,7085 9567,7075 9554,7064 9542,7052 9531,7040 9520,7026 9510,7012 9500,6997 9483,6965 9468,6930 9456,6893 9447,6853 9440,6810 9436,6765 9435,6718 9436,6669 9440,6623 9447,6580 9456,6538 9468,6500 9483,6464 9500,6431 9510,6415 9520,6400 9531,6386 9542,6373 9554,6360 9566,6349 9579,6338 9593,6328 9606,6320 9620,6312 9635,6305 9650,6299 9666,6294 9682,6289 9698,6286 9715,6284 9732,6282 9750,6282 9768,6283 9785,6284 9802,6287 9818,6290 9834,6295 9850,6301 9865,6308 9879,6316 9893,6325 9906,6335 9918,6345 9930,6357 9940,6369 9950,6382 9959,6396 9968,6411 9968,6303 10189,6303 10189,7086 Z"/></g><g/></g></g><g><desc>Drawing</desc><g><g style="stroke:none;fill:rgb(179,179,179)"><path d="M 11126,7108 L 11087,7123 11048,7136 11009,7147 10969,7156 10929,7163 10887,7168 10844,7171 10800,7172 10748,7170 10700,7165 10655,7156 10612,7144 10592,7136 10573,7127 10555,7118 10537,7108 10521,7097 10505,7085 10489,7072 10475,7058 10461,7043 10449,7028 10437,7012 10426,6995 10416,6977 10407,6959 10398,6939 10391,6919 10379,6877 10370,6831 10365,6783 10363,6731 10365,6680 10370,6632 10378,6587 10390,6545 10405,6505 10414,6487 10424,6468 10434,6451 10446,6434 10458,6418 10471,6403 10485,6388 10499,6375 10514,6362 10530,6351 10546,6340 10563,6330 10581,6321 10599,6313 10617,6306 10637,6300 10657,6295 10677,6291 10720,6285 10766,6283 10812,6285 10855,6290 10895,6299 10914,6304 10933,6311 10951,6318 10968,6327 10985,6336 11001,6346 11016,6357 11031,6369 11045,6381 11058,6395 11071,6409 11082,6424 11093,6440 11103,6457 11113,6474 11121,6492 11136,6530 11147,6570 11155,6614 11160,6660 11162,6709 11162,6799 10588,6799 10589,6823 10592,6845 10597,6866 10600,6876 10603,6886 10607,6895 10611,6904 10616,6912 10621,6920 10627,6928 10633,6935 10640,6942 10647,6948 10655,6954 10663,6960 10671,6965 10680,6970 10689,6974 10699,6978 10720,6985 10742,6990 10767,6994 10793,6996 10821,6997 10840,6997 10859,6996 10878,6994 10897,6992 10915,6989 10934,6985 10953,6980 10971,6975 10990,6969 11008,6962 11047,6946 11086,6927 11126,6905 11126,7108 Z M 10939,6633 L 10938,6612 10936,6592 10932,6573 10927,6556 10921,6540 10917,6532 10913,6525 10909,6518 10904,6512 10899,6506 10894,6500 10888,6495 10882,6489 10876,6485 10870,6480 10863,6476 10856,6473 10848,6469 10840,6466 10823,6461 10806,6458 10786,6456 10766,6455 10747,6456 10730,6458 10713,6462 10705,6464 10698,6467 10690,6470 10683,6474 10676,6477 10669,6482 10663,6486 10657,6491 10651,6496 10645,6502 10640,6508 10634,6514 10625,6528 10616,6542 10609,6558 10603,6575 10598,6594 10594,6613 10591,6634 10939,6633 Z"/></g><g/></g></g><g><desc>Drawing</desc><g><g style="stroke:none;fill:rgb(179,179,179)"><path d="M 3831,8560 L 3801,8561 3774,8562 3748,8565 3726,8568 3705,8573 3687,8578 3679,8581 3672,8585 3664,8588 3658,8592 3652,8596 3646,8601 3641,8605 3636,8611 3632,8616 3628,8622 3624,8629 3621,8635 3618,8642 3616,8650 3614,8657 3612,8665 3610,8683 3609,8701 3610,8715 3611,8729 3614,8741 3615,8747 3617,8753 3620,8759 3622,8764 3625,8769 3628,8774 3631,8779 3635,8784 3639,8789 3643,8793 3647,8797 3652,8801 3657,8805 3662,8808 3667,8811 3672,8814 3677,8816 3683,8819 3689,8821 3695,8822 3707,8825 3721,8826 3735,8827 3756,8826 3766,8825 3776,8823 3786,8821 3795,8818 3804,8814 3813,8811 3821,8806 3829,8801 3837,8796 3844,8790 3852,8783 3858,8776 3865,8769 3871,8761 3877,8753 3882,8744 3892,8725 3900,8704 3907,8682 3912,8657 3916,8632 3918,8604 3919,8575 3919,8560 3831,8560 Z M 4139,8475 L 4139,8958 3919,8958 3919,8864 3909,8877 3897,8890 3886,8902 3873,8913 3860,8924 3846,8933 3831,8942 3816,8950 3800,8957 3784,8963 3768,8968 3750,8973 3733,8976 3715,8978 3697,8980 3678,8980 3643,8979 3610,8975 3579,8969 3550,8961 3536,8956 3523,8950 3510,8944 3497,8937 3486,8930 3474,8922 3463,8913 3453,8904 3443,8894 3434,8884 3426,8873 3418,8862 3411,8850 3404,8838 3398,8825 3393,8812 3388,8799 3384,8785 3378,8755 3374,8724 3373,8690 3375,8654 3379,8621 3382,8605 3387,8590 3391,8576 3397,8562 3403,8549 3411,8536 3418,8524 3427,8512 3436,8501 3447,8491 3457,8481 3469,8472 3481,8463 3495,8455 3509,8448 3524,8441 3556,8429 3591,8419 3630,8411 3672,8405 3717,8402 3766,8401 3919,8401 3919,8364 3918,8351 3918,8345 3917,8339 3915,8333 3914,8327 3912,8322 3909,8317 3907,8312 3904,8307 3901,8303 3897,8298 3893,8294 3889,8290 3885,8286 3880,8283 3875,8280 3870,8277 3858,8271 3846,8266 3832,8262 3817,8259 3801,8257 3784,8255 3766,8255 3746,8255 3727,8256 3707,8258 3688,8260 3669,8263 3650,8266 3612,8275 3593,8280 3574,8286 3555,8293 3536,8301 3497,8319 3457,8339 3457,8150 3494,8136 3531,8124 3568,8113 3606,8105 3645,8099 3684,8094 3724,8092 3766,8091 3815,8092 3861,8096 3903,8103 3941,8112 3959,8118 3976,8124 3992,8131 4006,8138 4020,8146 4033,8155 4045,8165 4056,8175 4066,8186 4076,8198 4084,8211 4093,8225 4100,8240 4107,8257 4113,8274 4119,8292 4128,8332 4134,8375 4138,8423 4139,8475 Z"/></g><g/></g></g><g><desc>Drawing</desc><g><g style="stroke:none;fill:rgb(179,179,179)"><path d="M 5105,8111 L 4836,8958 4563,8958 4294,8111 4518,8111 4699,8772 4881,8111 5105,8111 Z"/></g><g/></g></g><g><desc>Drawing</desc><g><g style="stroke:none;fill:rgb(179,179,179)"><path d="M 5695,8560 L 5665,8561 5638,8562 5612,8565 5590,8568 5569,8573 5551,8578 5543,8581 5536,8585 5528,8588 5522,8592 5516,8596 5510,8601 5505,8605 5500,8611 5496,8616 5492,8622 5488,8629 5485,8635 5482,8642 5480,8650 5478,8657 5476,8665 5474,8683 5473,8701 5474,8715 5475,8729 5478,8741 5479,8747 5481,8753 5484,8759 5486,8764 5489,8769 5492,8774 5495,8779 5499,8784 5503,8789 5507,8793 5511,8797 5516,8801 5521,8805 5526,8808 5531,8811 5536,8814 5541,8816 5547,8819 5553,8821 5559,8822 5571,8825 5585,8826 5599,8827 5620,8826 5630,8825 5640,8823 5650,8821 5659,8818 5668,8814 5677,8811 5685,8806 5693,8801 5701,8796 5708,8790 5716,8783 5722,8776 5729,8769 5735,8761 5741,8753 5746,8744 5756,8725 5764,8704 5771,8682 5776,8657 5780,8632 5782,8604 5783,8575 5783,8560 5695,8560 Z M 6003,8475 L 6003,8958 5783,8958 5783,8864 5773,8877 5761,8890 5750,8902 5737,8913 5724,8924 5710,8933 5695,8942 5680,8950 5664,8957 5648,8963 5632,8968 5614,8973 5597,8976 5579,8978 5561,8980 5542,8980 5507,8979 5474,8975 5443,8969 5414,8961 5400,8956 5387,8950 5374,8944 5361,8937 5350,8930 5338,8922 5327,8913 5317,8904 5307,8894 5298,8884 5290,8873 5282,8862 5275,8850 5268,8838 5262,8825 5257,8812 5252,8799 5248,8785 5242,8755 5238,8724 5237,8690 5239,8654 5243,8621 5246,8605 5251,8590 5255,8576 5261,8562 5267,8549 5275,8536 5282,8524 5291,8512 5300,8501 5311,8491 5321,8481 5333,8472 5345,8463 5359,8455 5373,8448 5388,8441 5420,8429 5455,8419 5494,8411 5536,8405 5581,8402 5630,8401 5783,8401 5783,8364 5782,8351 5782,8345 5781,8339 5779,8333 5778,8327 5776,8322 5773,8317 5771,8312 5768,8307 5765,8303 5761,8298 5757,8294 5753,8290 5749,8286 5744,8283 5739,8280 5734,8277 5722,8271 5710,8266 5696,8262 5681,8259 5665,8257 5648,8255 5630,8255 5610,8255 5591,8256 5571,8258 5552,8260 5533,8263 5514,8266 5476,8275 5457,8280 5438,8286 5419,8293 5400,8301 5361,8319 5321,8339 5321,8150 5358,8136 5395,8124 5432,8113 5470,8105 5509,8099 5548,8094 5588,8092 5630,8091 5679,8092 5725,8096 5767,8103 5805,8112 5823,8118 5840,8124 5856,8131 5870,8138 5884,8146 5897,8155 5909,8165 5920,8175 5930,8186 5940,8198 5948,8211 5957,8225 5964,8240 5971,8257 5977,8274 5983,8292 5992,8332 5998,8375 6002,8423 6003,8475 Z"/></g><g/></g></g><g><desc>Drawing</desc><g><g style="stroke:none;fill:rgb(179,179,179)"><path d="M 6265,8111 L 6703,8111 6703,8788 6978,8788 6978,8958 6206,8958 6206,8788 6482,8788 6482,8281 6265,8281 6265,8111 Z M 6482,7699 L 6703,7699 6703,7958 6482,7958 6482,7699 Z"/></g><g/></g></g><g><desc>Drawing</desc><g><g style="stroke:none;fill:rgb(179,179,179)"><path d="M 7323,8605 L 7323,7952 7099,7952 7099,7782 7544,7782 7544,8605 7544,8629 7546,8652 7548,8672 7552,8691 7556,8707 7561,8722 7564,8729 7568,8735 7571,8741 7575,8746 7579,8751 7584,8756 7588,8760 7593,8764 7599,8768 7605,8771 7611,8774 7617,8777 7624,8780 7631,8782 7638,8784 7646,8785 7662,8787 7680,8788 7857,8788 7857,8958 7618,8958 7580,8957 7545,8953 7512,8947 7497,8942 7483,8938 7469,8932 7456,8926 7443,8919 7432,8912 7421,8904 7410,8895 7401,8886 7392,8876 7384,8865 7376,8854 7369,8841 7362,8828 7356,8814 7350,8800 7341,8768 7333,8732 7327,8693 7324,8651 7323,8605 Z"/></g><g/></g></g><g><desc>Drawing</desc><g><g style="stroke:none;fill:rgb(179,179,179)"><path d="M 8491,8560 L 8461,8561 8434,8562 8408,8565 8386,8568 8365,8573 8347,8578 8339,8581 8332,8585 8324,8588 8318,8592 8312,8596 8306,8601 8301,8605 8296,8611 8292,8616 8288,8622 8284,8629 8281,8635 8278,8642 8276,8650 8274,8657 8272,8665 8270,8683 8269,8701 8270,8715 8271,8729 8274,8741 8275,8747 8277,8753 8280,8759 8282,8764 8285,8769 8288,8774 8291,8779 8295,8784 8299,8789 8303,8793 8307,8797 8312,8801 8317,8805 8322,8808 8327,8811 8332,8814 8337,8816 8343,8819 8349,8821 8355,8822 8367,8825 8381,8826 8395,8827 8416,8826 8426,8825 8436,8823 8446,8821 8455,8818 8464,8814 8473,8811 8481,8806 8489,8801 8497,8796 8504,8790 8512,8783 8518,8776 8525,8769 8531,8761 8537,8753 8542,8744 8552,8725 8560,8704 8567,8682 8572,8657 8576,8632 8578,8604 8579,8575 8579,8560 8491,8560 Z M 8799,8475 L 8799,8958 8579,8958 8579,8864 8569,8877 8557,8890 8546,8902 8533,8913 8520,8924 8506,8933 8491,8942 8476,8950 8460,8957 8444,8963 8428,8968 8410,8973 8393,8976 8375,8978 8357,8980 8338,8980 8303,8979 8270,8975 8239,8969 8210,8961 8196,8956 8183,8950 8170,8944 8157,8937 8146,8930 8134,8922 8123,8913 8113,8904 8103,8894 8094,8884 8086,8873 8078,8862 8071,8850 8064,8838 8058,8825 8053,8812 8048,8799 8044,8785 8038,8755 8034,8724 8033,8690 8035,8654 8039,8621 8042,8605 8047,8590 8051,8576 8057,8562 8063,8549 8071,8536 8078,8524 8087,8512 8096,8501 8107,8491 8117,8481 8129,8472 8141,8463 8155,8455 8169,8448 8184,8441 8216,8429 8251,8419 8290,8411 8332,8405 8377,8402 8426,8401 8579,8401 8579,8364 8578,8351 8578,8345 8577,8339 8575,8333 8574,8327 8572,8322 8569,8317 8567,8312 8564,8307 8561,8303 8557,8298 8553,8294 8549,8290 8545,8286 8540,8283 8535,8280 8530,8277 8518,8271 8506,8266 8492,8262 8477,8259 8461,8257 8444,8255 8426,8255 8406,8255 8387,8256 8367,8258 8348,8260 8329,8263 8310,8266 8272,8275 8253,8280 8234,8286 8215,8293 8196,8301 8157,8319 8117,8339 8117,8150 8154,8136 8191,8124 8228,8113 8266,8105 8305,8099 8344,8094 8384,8092 8426,8091 8475,8092 8521,8096 8563,8103 8601,8112 8619,8118 8636,8124 8652,8131 8666,8138 8680,8146 8693,8155 8705,8165 8716,8175 8726,8186 8736,8198 8744,8211 8753,8225 8760,8240 8767,8257 8773,8274 8779,8292 8788,8332 8794,8375 8798,8423 8799,8475 Z"/></g><g/></g></g><g><desc>Drawing</desc><g><g style="stroke:none;fill:rgb(179,179,179)"><path d="M 9537,8537 L 9536,8507 9534,8479 9531,8452 9527,8428 9521,8404 9514,8383 9506,8363 9496,8345 9491,8337 9485,8329 9480,8321 9474,8315 9467,8308 9461,8303 9454,8297 9447,8293 9440,8289 9433,8285 9425,8282 9417,8279 9409,8278 9401,8276 9392,8275 9383,8275 9374,8275 9365,8276 9357,8277 9349,8279 9341,8282 9333,8285 9326,8288 9319,8292 9312,8297 9305,8302 9299,8308 9292,8314 9286,8321 9281,8328 9275,8336 9270,8345 9260,8363 9252,8383 9245,8405 9239,8428 9234,8453 9231,8479 9229,8507 9228,8537 9229,8567 9231,8595 9234,8622 9239,8647 9244,8670 9252,8691 9260,8711 9270,8729 9281,8745 9287,8753 9293,8759 9299,8766 9305,8771 9312,8777 9319,8781 9326,8785 9334,8789 9341,8792 9349,8795 9357,8796 9366,8798 9374,8799 9383,8799 9392,8799 9401,8798 9409,8797 9417,8795 9425,8792 9433,8789 9440,8786 9447,8782 9454,8777 9461,8772 9467,8766 9474,8760 9480,8753 9485,8746 9491,8738 9496,8729 9506,8711 9514,8691 9521,8669 9527,8646 9531,8621 9534,8595 9536,8567 9537,8537 Z M 9228,8231 L 9238,8214 9249,8198 9260,8184 9272,8170 9284,8157 9297,8146 9310,8135 9323,8126 9337,8118 9351,8111 9366,8105 9381,8100 9396,8096 9412,8093 9428,8092 9445,8091 9481,8093 9499,8095 9516,8098 9532,8102 9548,8107 9563,8113 9578,8120 9593,8127 9606,8136 9619,8145 9632,8156 9644,8167 9656,8179 9667,8192 9677,8206 9687,8221 9696,8236 9712,8270 9726,8306 9738,8346 9747,8388 9753,8434 9757,8483 9758,8535 9757,8587 9753,8635 9747,8681 9738,8724 9727,8763 9713,8800 9697,8833 9678,8864 9668,8878 9657,8891 9646,8904 9634,8915 9622,8925 9609,8935 9595,8944 9582,8951 9567,8958 9552,8964 9537,8969 9521,8973 9505,8976 9488,8978 9471,8980 9453,8980 9434,8979 9416,8978 9398,8975 9381,8971 9365,8966 9349,8959 9334,8952 9319,8943 9305,8933 9292,8922 9280,8910 9268,8897 9257,8883 9247,8867 9237,8851 9228,8833 9228,8958 9007,8958 9007,7782 9228,7782 9228,8231 Z"/></g><g/></g></g><g><desc>Drawing</desc><g><g style="stroke:none;fill:rgb(179,179,179)"><path d="M 10119,8605 L 10119,7952 9895,7952 9895,7782 10340,7782 10340,8605 10340,8629 10342,8652 10344,8672 10348,8691 10352,8707 10357,8722 10360,8729 10364,8735 10367,8741 10371,8746 10375,8751 10380,8756 10384,8760 10389,8764 10395,8768 10401,8771 10407,8774 10413,8777 10420,8780 10427,8782 10434,8784 10442,8785 10458,8787 10476,8788 10653,8788 10653,8958 10414,8958 10376,8957 10341,8953 10308,8947 10293,8942 10279,8938 10265,8932 10252,8926 10239,8919 10228,8912 10217,8904 10206,8895 10197,8886 10188,8876 10180,8865 10172,8854 10165,8841 10158,8828 10152,8814 10146,8800 10137,8768 10129,8732 10123,8693 10120,8651 10119,8605 Z"/></g><g/></g></g><g><desc>Drawing</desc><g><g style="stroke:none;fill:rgb(179,179,179)"><path d="M 11591,8916 L 11552,8931 11513,8944 11474,8955 11434,8964 11394,8971 11352,8976 11309,8979 11265,8980 11213,8978 11165,8973 11120,8964 11077,8952 11057,8944 11038,8935 11020,8926 11002,8916 10986,8905 10970,8893 10954,8880 10940,8866 10926,8851 10914,8836 10902,8820 10891,8803 10881,8785 10872,8767 10863,8747 10856,8727 10844,8685 10835,8639 10830,8591 10828,8539 10830,8488 10835,8440 10843,8395 10855,8353 10870,8313 10879,8295 10889,8276 10899,8259 10911,8242 10923,8226 10936,8211 10950,8196 10964,8183 10979,8170 10995,8159 11011,8148 11028,8138 11046,8129 11064,8121 11082,8114 11102,8108 11122,8103 11142,8099 11185,8093 11231,8091 11277,8093 11320,8098 11360,8107 11379,8112 11398,8119 11416,8126 11433,8135 11450,8144 11466,8154 11481,8165 11496,8177 11510,8189 11523,8203 11536,8217 11547,8232 11558,8248 11568,8265 11578,8282 11586,8300 11601,8338 11612,8378 11620,8422 11625,8468 11627,8517 11627,8607 11053,8607 11054,8631 11057,8653 11062,8674 11065,8684 11068,8694 11072,8703 11076,8712 11081,8720 11086,8728 11092,8736 11098,8743 11105,8750 11112,8756 11120,8762 11128,8768 11136,8773 11145,8778 11154,8782 11164,8786 11185,8793 11207,8798 11232,8802 11258,8804 11286,8805 11305,8805 11324,8804 11343,8802 11362,8800 11380,8797 11399,8793 11418,8788 11436,8783 11455,8777 11473,8770 11512,8754 11551,8735 11591,8713 11591,8916 Z M 11404,8441 L 11403,8420 11401,8400 11397,8381 11392,8364 11386,8348 11382,8340 11378,8333 11374,8326 11369,8320 11364,8314 11359,8308 11353,8303 11347,8297 11341,8293 11335,8288 11328,8284 11321,8281 11313,8277 11305,8274 11288,8269 11271,8266 11251,8264 11231,8263 11212,8264 11195,8266 11178,8270 11170,8272 11163,8275 11155,8278 11148,8282 11141,8285 11134,8290 11128,8294 11122,8299 11116,8304 11110,8310 11105,8316 11099,8322 11090,8336 11081,8350 11074,8366 11068,8383 11063,8402 11059,8421 11056,8442 11404,8441 Z"/></g><g/></g></g></g></g></svg>